<?xml version="1.0" encoding="utf-8"?>
<!-- Generator: Adobe Illustrator 23.0.1, SVG Export Plug-In . SVG Version: 6.00 Build 0)  -->
<svg version="1.1" xmlns="http://www.w3.org/2000/svg" xmlns:xlink="http://www.w3.org/1999/xlink" x="0px" y="0px"
	 viewBox="0 0 764 284" style="enable-background:new 0 0 764 284;" xml:space="preserve">
<style type="text/css">
	.st0{fill:#D9A87E;}
	.st1{fill:none;}
	.st2{fill:#011526;}
</style>
<g id="C">
	<path class="st0" d="M135.25,258C70.6,258,18,205.4,18,140.75C18,76.1,70.6,23.5,135.25,23.5S252.5,76.1,252.5,140.75
		C252.5,205.4,199.9,258,135.25,258z M135.25,36.5C77.77,36.5,31,83.27,31,140.75S77.77,245,135.25,245S239.5,198.23,239.5,140.75
		S192.73,36.5,135.25,36.5z"/>
	<line class="st1" x1="190" y1="219" x2="816" y2="219"/>
	<line class="st1" x1="188" y1="62" x2="807" y2="62"/>
</g>
<g id="O">
	<path class="st2" d="M135.25,267C65.64,267,9,210.36,9,140.75S65.64,14.5,135.25,14.5c25.3,0,49.71,7.46,70.6,21.57l-17.35,25.69
		c-15.74-10.64-34.15-16.26-53.24-16.26C82.73,45.5,40,88.23,40,140.75S82.73,236,135.25,236c19.7,0,38.6-5.96,54.65-17.23
		l17.81,25.37C186.42,259.1,161.36,267,135.25,267z"/>
</g>
<g id="NE">
	<g>
		<path class="st0" d="M284.16,74.6l0.18,7.65v46.44h-4.32V63.8H282l42.39,48.87c2.88,3.42,5.1,6.15,6.66,8.19
			c-0.24-2.88-0.36-6.18-0.36-9.9V64.34h4.32v64.89h-1.98l-43.2-49.77c-3-3.42-4.92-5.7-5.76-6.84L284.16,74.6z"/>
		<path class="st0" d="M358.77,128.69V64.34h29.88v3.78h-25.56v23.67h23.13v3.69h-23.13v29.43h26.55v3.78H358.77z"/>
	</g>
</g>
<g id="HALLENGE">
	<g>
		<path class="st2" d="M329.15,216v-32.22h-44.19V216h-4.32v-64.35h4.32v28.26h44.19v-28.26h4.32V216H329.15z"/>
		<path class="st2" d="M360.65,193.68L351.38,216h-4.59l27.09-64.8h2.52l27.18,64.8h-4.86l-9.27-22.32H360.65z M374.87,158.4
			c-0.06,0.06-0.18,0.42-0.36,1.08c-0.84,2.58-1.65,4.77-2.43,6.57l-9.9,23.94h25.74l-9.9-23.85
			C375.92,161.58,374.87,159,374.87,158.4z"/>
		<path class="st2" d="M416.9,216v-64.35h4.32v60.39h29.61V216H416.9z"/>
		<path class="st2" d="M464.69,216v-64.35h4.32v60.39h29.61V216H464.69z"/>
		<path class="st2" d="M512.48,216v-64.35h29.88v3.78H516.8v23.67h23.13v3.69H516.8v29.43h26.55V216H512.48z"/>
		<path class="st2" d="M564.76,161.91l0.18,7.65V216h-4.32v-64.89h1.98L605,199.98c2.88,3.42,5.1,6.15,6.66,8.19
			c-0.24-2.88-0.36-6.18-0.36-9.9v-46.62h4.32v64.89h-1.98l-43.2-49.77c-3-3.42-4.92-5.7-5.76-6.84L564.76,161.91z"/>
		<path class="st2" d="M647.75,162.99c-4.98,5.64-7.47,12.55-7.47,20.74c0,8.19,2.82,15.14,8.46,20.84
			c5.64,5.7,12.51,8.55,20.61,8.55c6.96,0,12.75-0.96,17.37-2.88v-26.46h4.32v28.44c-5.22,3.24-12.53,4.86-21.92,4.86
			c-9.39,0-17.33-3.22-23.8-9.67c-6.48-6.45-9.72-14.34-9.72-23.67c0-9.33,2.94-17.19,8.82-23.58c5.88-6.39,13.41-9.58,22.59-9.58
			c7.2,0,14.49,1.2,21.87,3.6l-1.17,3.6c-7.2-2.16-14.1-3.24-20.7-3.24C659.14,154.53,652.72,157.35,647.75,162.99z"/>
		<path class="st2" d="M713.35,216v-64.35h29.88v3.78h-25.56v23.67h23.13v3.69h-23.13v29.43h26.55V216H713.35z"/>
	</g>
</g>
</svg>
