<?xml version="1.0" encoding="utf-8"?>
<!-- Generator: Adobe Illustrator 23.0.1, SVG Export Plug-In . SVG Version: 6.00 Build 0)  -->
<svg version="1.1" id="Layer_1" xmlns="http://www.w3.org/2000/svg" xmlns:xlink="http://www.w3.org/1999/xlink" x="0px" y="0px"
	 viewBox="0 0 551 848" style="enable-background:new 0 0 551 848;" xml:space="preserve">
<style type="text/css">
	.st0{fill:#32324C;}
	.st1{fill:#434361;}
	.st2{fill:#EDAB8E;}
	.st3{fill:#E6F9FF;}
	.st4{fill:#D8EAEF;}
	.st5{fill:#EDA78C;}
	.st6{fill:#002938;}
	.st7{fill:#232323;}
	.st8{fill:#33393B;}
	.st9{fill:#ACBABC;}
	.st10{fill:#B6C9CE;}
	.st11{fill:#D89380;}
	.st12{fill:#920E08;}
	.st13{fill:#FFFFFF;}
	.st14{fill:#F85C66;}
	.st15{fill:#AF7951;}
	.st16{fill:#292827;}
	.st17{fill:#57514D;}
</style>
<g>
	<g>
		<g>
			<g>
				<path class="st0" d="M260.67,630.46c0.52,28.05,0.87,56.42,1.04,85.09c0.14,25.14,0.14,50.05,0,74.71
					c-10.72,0.69-21.45,1.38-32.17,2.08c-6.92-33.01-13.04-57.53-17.64-74.71c-3.17-11.84-7.63-27.76-8.3-49.81
					c-0.33-10.78,0.35-19.75,1.04-25.94c-6.36-22.01-12.59-44.5-18.68-67.45c-7.85-29.61-15.1-58.68-21.79-87.17
					c24.21-13.14,48.43-26.29,72.64-39.43C244.76,508.71,252.71,569.58,260.67,630.46z"/>
			</g>
		</g>
		<g>
			<g>
				<g>
					<path class="st1" d="M173.5,639.8c-0.42,3.72-2.66,23.57-6.23,49.81c-2.47,18.2-4.53,31.81-7.26,49.81
						c-2.06,13.61-4.85,31.62-8.3,52.92c-11.76,2.42-23.52,4.84-35.28,7.26c-2.63-27.91-4.25-58.47-4.15-91.32
						c0.08-26.13,1.24-50.75,3.11-73.68c0.75-34.83-2.81-62.27-6.23-80.94c-4.28-23.43-9.04-36.94-10.38-61.22
						c-1.33-24.2,1.55-44.12,4.15-57.07c1.17,2.3,11.08,21.1,32.76,25.06c15.13,2.76,26.99-3.34,30.54-5.35
						c12.62,42.77,14.89,77.58,14.53,101.69C180.45,578.04,177.96,600.21,173.5,639.8z"/>
				</g>
			</g>
			<path class="st1" d="M117.47,486.22c-3.12-4.73-6.57-10.97-9.34-18.68c-4.31-12.02-5.2-22.73-5.19-30.09
				c10.12-1.66,20.64-3.1,31.53-4.25c39.02-4.12,74.85-3.68,106.48-0.94c0.7,7.63,1.1,23.59-7.26,40.47
				c-1.03,2.07-19.19,37.28-56.04,40.47c-20.85,1.81-36.9-7.56-41.51-10.38C127.33,497.44,121.3,491.07,117.47,486.22z"/>
		</g>
	</g>
</g>
<g>
	<g>
		<path class="st2" d="M384.61,231.94l114.53-91.16l-14.61-20.89l-131.12,73.16c-11.28,8.88-12.74,25.43-3.19,36.16l0,0
			C359.1,239.19,374.27,240.4,384.61,231.94z"/>
	</g>
	<g>
		<g>
			<path class="st2" d="M335.29,191.66l-2.54,49.61l30.77,0.29c10.48,0.01,19.11-10.44,19.58-23.71l0,0
				c0.5-14.08-8.33-25.87-19.45-25.96l-28.53-0.68L335.29,191.66z"/>
		</g>
		<g>
			<path class="st3" d="M240.12,242.86c38.22-1.86,84.96-1.74,91.74-1.74l2.58-50.2c-32.89-1.38-65.79-2.76-98.68-4.14
				c-8.24-4.7-11.34-4.13-12.56-2.49c-1.81,2.44,0.9,6.73,0.72,14.57c-0.24,10.39-5.71,13.32-5.31,19.78
				C219.51,232.72,228.99,243.4,240.12,242.86z"/>
			<polygon class="st4" points="335.53,187.47 333.57,245.66 318.29,244.91 320.68,187.36 			"/>
		</g>
	</g>
</g>
<g>
	<g>
		<g>
			<path class="st3" d="M172.05,175.23l-85.36,9.86c3.69,85.16,7.38,170.32,11.07,255.47c5.08,1.58,12.11,3.57,20.61,5.3
				c18.69,3.83,33.28,3.86,44.25,4.4c11.34,0.57,24.31,0.41,41.26-2.1c16.25-2.4,29.57-6.31,39.16-9.68
				c0.7-82.78,1.41-165.56,2.11-248.34L172.05,175.23z"/>
		</g>
	</g>
</g>
<g>
	<g>
		<g>
			<path class="st2" d="M73.88,335.76c-14.5-3.98-29.01-7.96-43.51-11.94c-2.79,15.05-5.58,30.1-8.37,45.15
				c-0.13,11.29,8.14,20.74,18.5,22.08c11.53,1.49,22.88-7.42,24.04-20C67.66,359.28,70.77,347.52,73.88,335.76z"/>
		</g>
		<g>
			<path class="st3" d="M52.39,208.48c-7.91,47.83-19.93,105.84-21.66,114.27l0,0l48.52,13.28l25.03-118.47
				c2.75-14.92-7.64-29.07-22.69-30.92l0,0C67.58,184.92,54.7,194.54,52.39,208.48z"/>
			<polygon class="st4" points="82.37,338.07 25.86,323.95 30.48,305.13 86.26,319.66 			"/>
		</g>
	</g>
</g>
<g>
	<path class="st2" d="M23.04,374.15c-1.56,9.39,1.47,13.77,10.38,38.39c9.5,26.27,8.19,27.21,15.57,44.62
		c5.36,12.64,10.59,22.87,14.53,30.09c7.76-1.39,15.53-2.79,23.29-4.18c-7.07-35.96-14.15-71.93-21.22-107.89
		c-4.05-16.54-16.06-26.42-25.49-25.06C31.34,351.38,24.73,363.95,23.04,374.15z"/>
</g>
<path class="st5" d="M202.15,151.19c3.89,10.76,7.78,21.52,11.67,32.28c-13.08,2.57-17.78,7.26-19.54,11.29
	c-1.19,2.73-1.98,7.3-2.69,7.2c-0.78-0.11,0.05-5.56-2.8-7.18c-0.66-0.37-1.27-0.41-1.46-0.43c-2.8-0.28-13.63-5.62-14.71-19.18
	c-0.95-11.96-1.91-23.91-2.86-35.87L202.15,151.19z"/>
<path class="st2" d="M183.92,33.85c-32.48,4.5-33.64,24.83-33.64,24.83s-3.16,11.71-4.39,30.4c-2.57-3.96-7.39-5.88-12.7-4.21
	c-11.26,3.54-6.4,35.74,10.34,34.16c-0.17,8.89,2.68,19.84,3.66,22.31c3.73,9.33,22.7,24.47,40.51,27.87
	c17.81,3.41,42.37-6.63,46.02-26.16c5.05-27.06,6.68-95.26,6.68-95.26S237.7,26.4,183.92,33.85z"/>
<path class="st6" d="M185.26,89.97c-0.45,4.04-2.75,7.17-5.15,6.98c-2.39-0.19-3.97-3.62-3.53-7.67c0.45-4.04,2.75-7.17,5.15-6.98
	C184.12,82.49,185.7,85.92,185.26,89.97z"/>
<path class="st6" d="M224.27,94.1c-0.45,4.04-2.75,7.17-5.15,6.98c-2.39-0.19-3.97-3.62-3.53-7.67c0.45-4.04,2.75-7.17,5.15-6.98
	C223.14,86.62,224.72,90.06,224.27,94.1z"/>
<path class="st7" d="M174.43,41.35c-8.58-0.63-26.14,6.29-34.71,5.51c0.02,0.06,0.06,0.11,0.07,0.17
	c1.08,3.55-2.18,37.44-2.18,37.44c8.59,0.98,7.47,7.91,7.47,7.91l-0.27,14.41l8.66-0.23l3.52-30.32c6.09-2.44,9.98-14.79,9.98-14.79
	S172.57,46.66,174.43,41.35z"/>
<g>
	<path class="st8" d="M171.89,72.64c1.96-1.47,4.24-2.51,6.61-3.24c2.37-0.72,4.89-1.03,7.39-0.92c1.26,0.04,2.49,0.29,3.73,0.53
		c0.6,0.17,1.2,0.39,1.79,0.58c0.29,0.11,0.6,0.18,0.88,0.32l0.84,0.42c2.29,1.02,4.2,2.7,5.85,4.47c-2.07-1.32-4.06-2.64-6.31-3.4
		c-1.08-0.48-2.24-0.7-3.37-1.01l-1.73-0.28c-0.57-0.12-1.17-0.08-1.75-0.14c-2.34-0.13-4.7,0.09-7.03,0.56
		C176.45,71.01,174.15,71.71,171.89,72.64z"/>
</g>
<g>
	<path class="st8" d="M213.98,76.99c1.49-1.61,3.36-2.86,5.41-3.76c2.04-0.9,4.33-1.37,6.62-1.23c1.14,0.09,2.27,0.33,3.35,0.71
		c1.08,0.39,2.08,0.94,3,1.58c1.83,1.32,3.32,3.02,4.39,4.93c-1.56-1.53-3.21-2.91-5.01-3.94c-1.81-1.02-3.79-1.66-5.83-1.79
		c-2.04-0.15-4.11,0.2-6.11,0.83C217.79,74.96,215.85,75.86,213.98,76.99z"/>
</g>
<path class="st7" d="M170.22,48.8c0,0,42.96,24.85,87.69-6.73c0,0-11.74-14.86-33.76-18.23c0,0,5.55-1.17,15.7,0.96
	c0,0-27.58-20.37-65.92-11.62c-38.34,8.75-34.45,26.16-33.93,50.92"/>
<g>
	<g>
		<line class="st9" x1="102.93" y1="220.39" x2="80.87" y2="319.92"/>
	</g>
</g>
<path class="st10" d="M187.91,178.16c0.24,5.53,0.49,11.05,0.73,16.58c-0.74,0.06-2.82,0.13-4.86-1.17
	c-1.21-0.77-1.94-1.73-2.34-2.34C183.6,186.87,185.75,182.51,187.91,178.16z"/>
<path class="st10" d="M201.7,177.84c-2.59,5.85-5.17,11.71-7.76,17.56c4.77-3.4,9.53-6.79,14.3-10.19
	C206.06,182.76,203.88,180.3,201.7,177.84z"/>
<path class="st4" d="M225.89,183.18c-0.98,7.07-1.96,14.14-2.93,21.21c-7.08-8.85-14.17-17.7-21.25-26.55
	c5.58-4.24,11.15-8.49,16.73-12.73L225.89,183.18z"/>
<path class="st4" d="M148.47,179.69l27.34,25.33c4.03-8.96,8.06-17.91,12.09-26.87c-10.43-4.97-20.86-9.95-31.29-14.92
	L148.47,179.69z"/>
<g>
	<path class="st11" d="M207.32,123.55l-8.12-0.05c-0.92-0.01-1.66-0.83-1.66-1.83c0.01-1,0.76-1.81,1.68-1.81l8.12,0.05
		c0.16,0,0.25-0.09,0.3-0.16c0.05-0.07,0.1-0.2,0.06-0.36l-6.58-25.21c-0.25-0.97,0.26-1.97,1.15-2.25
		c0.89-0.28,1.81,0.28,2.06,1.25l6.58,25.21c0.32,1.24,0.1,2.53-0.62,3.56C209.58,122.97,208.5,123.56,207.32,123.55z"/>
</g>
<g>
	<g>
		<path class="st12" d="M211.61,141.99c-0.83,1.26-1.89,2.46-3.25,3.45c-2.75,2-6.71,3.16-12.43,2.25
			c-4.8-0.77-8.28-3.81-10.72-7.18c-1.66-2.29-2.84-4.73-3.63-6.71c-0.96-2.39-1.36-4.13-1.36-4.13s23.13,2.97,34.34,3.21
			c0,0,0,0,0,0.01c-0.01,0.11-0.08,1.85-0.73,4.12C213.4,138.54,212.71,140.32,211.61,141.99z"/>
	</g>
	<g>
		<path class="st13" d="M213.83,137.01c-10.74,0.22-27.73-2.6-32.25-3.21c-0.96-2.39-1.36-4.13-1.36-4.13s23.13,2.97,34.34,3.21
			c0,0,0,0,0,0.01C214.55,133,214.47,134.74,213.83,137.01z"/>
	</g>
</g>
<g>
	<path class="st14" d="M208.36,145.43c-2.75,2-6.71,3.16-12.43,2.25c-4.8-0.77-8.28-3.81-10.72-7.18c1.63-0.56,6.07-1.56,11.9,1.23
		c0,0,2.29-0.85,6,0.14C205.27,142.45,207.16,143.43,208.36,145.43z"/>
</g>
<g>
	<path class="st2" d="M78.36,473.95c0,0,7.71,4.74,12.35,10.57c4.64,5.84,9.25,12.14,12.04,15.79c3.36,4.39-1.74,5.68-5.95,2.89
		c-6.39-4.23-7.89-7.94-7.89-7.94s13.08,26.64,13.54,34.6c0.42,7.27-7.53-7.06-14.76-18.55c0,0,8.17,27.92,4.9,31.63
		c-4.29,4.87-14.09-28.98-14.09-28.98s3.51,26.04,0.34,26.02c-3.54-0.02-10.39-26.23-10.39-26.23c0.22,11.44-0.2,17.22-1.27,17.34
		c-1.52,0.17-4.33-11.12-8.45-33.89c-1.81-10.55,2.39-19.88,9.38-22.9C72.02,472.63,75.97,473.28,78.36,473.95z"/>
</g>
<g>
	<path class="st2" d="M501.03,100.53c7.04-4.38,12.13-8.25,15.54-11.02c3.09-2.52,6.46-4.69,9.65-7.09
		c4.87-3.68,8.07-6.25,12.7-6.43c1.17-0.04,3.77-0.14,4.36,1.11c0.27,0.56,0.52,2.23-8.47,10.18c-4.2,3.71-7.92,6.58-10.65,8.59
		l-10.59,7.69c0,0,5.71,25.39,13.37,26.62c0,0-12.14,8.06-31.15,12.76c-1.2-0.24-6.15-1.37-9.73-6.11
		c-3.55-4.71-3.31-9.75-3.21-10.98c0.15-1.75,0.41-3.75,1.08-5.84c1.16-3.6,3.56-8.56,8.51-14.01L501.03,100.53z"/>
	<path class="st2" d="M529.97,108.31c0,0,6.61-7.31-1.99-12.7c-2.95-1.85-5.66,0.27-14.61,8.01c0,0,3.98,4.22,6.15,7.84
		C519.52,111.46,526.33,110,529.97,108.31z"/>
	<path class="st2" d="M529.44,119.54c0,0,4.85-1.82,4.47-6.61c0,0-0.1-3.21-3.82-4.64c0,0-6.5,2.16-8.27,2.33
		c0,0-16.56,2.27-16.51,8.07c0.03,2.77,1.71,4.47,8.02,4.1L529.44,119.54z"/>
	<path class="st2" d="M526.94,130.17c0,0,8.42-4.86,2.62-10.81l-14.25,2.97c0,0-4.36,1.56-3.04,4.78
		C513.58,130.3,516.35,131.2,526.94,130.17z"/>
	<g>
		<g>
			<path class="st15" d="M522.92,130.27c-1.32-0.04-2.65-0.14-3.92-0.49c-0.63-0.18-1.24-0.44-1.76-0.81
				c-0.52-0.38-0.95-0.87-1.25-1.44c-0.3-0.57-0.56-1.18-0.49-1.79c0.05-0.62,0.36-1.19,0.76-1.68c0.82-0.98,1.95-1.72,3.1-2.26
				l1.35-0.62l-1.47,0.14l-3.33,0.32c-1.1,0.04-2.21,0.01-3.26-0.22c-1.04-0.22-2.04-0.71-2.57-1.57c-0.54-0.86-0.62-1.97-0.61-3.04
				c0.02-1.05,0.36-2.07,0.96-2.93c0.59-0.86,1.41-1.58,2.3-2.16c0.9-0.58,1.88-1.06,2.89-1.44c1.01-0.39,2.06-0.69,3.12-0.89
				l0.77-0.14l-0.43-0.63c-0.48-0.72-1.12-1.37-1.86-1.83c-0.72-0.48-1.6-0.72-1.94-1.18c-0.36-0.46-0.28-1.33-0.16-2.09
				c0.07-0.39,0.14-0.79,0.25-1.16c0.11-0.33,0.32-0.68,0.55-0.99c0.96-1.25,2.27-2.24,3.59-3.16c1.34-0.91,2.73-1.75,4.16-2.51
				l-0.05-0.09c-1.47,0.7-2.9,1.48-4.28,2.35c-1.36,0.89-2.73,1.82-3.8,3.12c-0.26,0.33-0.5,0.69-0.65,1.12
				c-0.13,0.4-0.25,0.79-0.35,1.2c-0.1,0.4-0.18,0.82-0.21,1.26c-0.02,0.43,0.01,0.94,0.3,1.39c0.3,0.45,0.73,0.68,1.08,0.88
				c0.36,0.2,0.7,0.39,1.01,0.6c0.62,0.43,1.11,0.99,1.51,1.63l0.34-0.77c-2.28,0.37-4.48,1.18-6.39,2.52
				c-0.95,0.67-1.83,1.49-2.47,2.49c-0.65,1-1.02,2.2-1,3.39c0.02,1.13,0.11,2.37,0.79,3.42c0.69,1.06,1.9,1.59,3.02,1.8
				c1.14,0.22,2.29,0.23,3.42,0.16l3.35-0.36l-0.13-0.48c-1.23,0.6-2.36,1.38-3.22,2.46c-0.42,0.54-0.76,1.19-0.8,1.91
				c-0.02,0.35,0.03,0.72,0.14,1.05c0.12,0.33,0.27,0.63,0.43,0.92c0.34,0.59,0.81,1.12,1.37,1.5c0.57,0.38,1.21,0.63,1.86,0.8
				c1.31,0.33,2.65,0.39,3.97,0.39L522.92,130.27z"/>
		</g>
	</g>
	<path class="st2" d="M496.25,101.42c2.55-2.12,6.52-5.6,11.29-3.95c3.86,1.34,16.08,8.45,12.66,13.65
		c-2.07,3.14-7.56-1.48-14.99-3.82c-2.29-0.72-5.16,3.45-8.81,5.53c0,0-5.83,2.92-6.59-3.74
		C489.8,109.09,493.89,103.38,496.25,101.42z"/>
	<g>
		<path class="st15" d="M507.93,97.25c1.52,0.71,2.95,1.58,4.34,2.49c1.39,0.92,2.75,1.89,4.01,2.98c1.27,1.06,2.47,2.24,3.41,3.59
			c0.46,0.68,0.85,1.42,1,2.22c0.17,0.8,0.01,1.66-0.46,2.36c0.56-0.63,0.79-1.54,0.68-2.39c-0.11-0.86-0.48-1.65-0.92-2.38
			c-0.91-1.45-2.14-2.64-3.41-3.75c-1.3-1.08-2.67-2.06-4.11-2.93C511.01,98.59,509.52,97.79,507.93,97.25z"/>
	</g>
	<g>
		<path class="st15" d="M519.63,111.72c-0.95,0.59-2.1,0.35-3.09,0.02c-1.02-0.33-1.99-0.79-2.97-1.25c-1.94-0.94-3.9-1.9-5.94-2.69
			c-0.51-0.2-1.02-0.38-1.54-0.55l-0.78-0.25l-0.22-0.05c-0.07-0.01-0.17-0.02-0.25-0.03c-0.17-0.01-0.32-0.01-0.47,0.02
			c-0.62,0.09-1.14,0.36-1.62,0.66c-0.48,0.3-0.91,0.65-1.32,1c-1.66,1.42-3.15,2.98-4.95,4.2c0.98-0.48,1.87-1.12,2.74-1.77
			c0.86-0.67,1.69-1.37,2.54-2.02c0.85-0.62,1.74-1.32,2.69-1.43c0.25-0.02,0.42-0.02,0.67,0.06l0.76,0.25
			c0.51,0.18,1.01,0.36,1.51,0.56c2.01,0.76,3.96,1.69,5.97,2.53c1.01,0.41,2.02,0.82,3.09,1.1c0.54,0.12,1.09,0.22,1.64,0.2
			C518.65,112.24,519.21,112.08,519.63,111.72z"/>
	</g>
</g>
<path class="st16" d="M153.68,787.49c0,0,11.23,15.78,29.76,22.59c18.53,6.81,35.1,14.86,32.82,25.07c0,0-29.33,10.05-73.96-7.83
	l-0.38,4.37l-29.99-3.8l3.13-36.14l24.86,3.76l-1.54-3.74L153.68,787.49z"/>
<g>
	<path class="st17" d="M162.19,829.55c40.24,13.11,51.59,3.41,54.05,2.88c0.19,0.92,0.2,1.82,0,2.71c0,0-29.33,10.05-73.96-7.83
		l-0.38,4.37l-29.99-3.8l0.63-7.21C123.25,822.19,132.52,819.88,162.19,829.55z"/>
</g>
<g>
	<path class="st17" d="M147.69,808.18c0.43,0.04,0.86-0.11,1.14-0.43c6.89-7.78,13.98-9.5,14.05-9.52c0.71-0.17,1.12-0.82,0.93-1.46
		c-0.2-0.64-0.92-1.02-1.63-0.87c-0.32,0.08-8.01,1.94-15.43,10.32c-0.45,0.51-0.36,1.27,0.22,1.69
		C147.18,808.07,147.43,808.16,147.69,808.18z"/>
</g>
<g>
	<path class="st17" d="M154.33,811.57c0.43,0.04,0.86-0.11,1.14-0.43c6.89-7.78,13.98-9.5,14.05-9.52c0.71-0.16,1.12-0.82,0.93-1.46
		c-0.19-0.64-0.93-1.03-1.63-0.86c-0.32,0.08-8.01,1.94-15.43,10.32c-0.45,0.51-0.36,1.27,0.22,1.69
		C153.83,811.46,154.08,811.55,154.33,811.57z"/>
</g>
<path class="st16" d="M264.46,780.84c0,0,11.93,15.2,30.72,21.11c18.79,5.91,35.68,13.16,33.89,23.43c0,0-28.76,11.4-74.07-4.32
	l-0.17,4.37l-30.06-2.38l1.42-36.16l24.95,2.57l-1.71-3.65L264.46,780.84z"/>
<g>
	<path class="st17" d="M274.93,822.36c40.72,11.17,51.57,0.97,54,0.33c0.23,0.9,0.29,1.81,0.13,2.7c0,0-28.76,11.4-74.07-4.32
		l-0.17,4.37l-30.06-2.38l0.28-7.21C235.77,816.86,244.91,814.12,274.93,822.36z"/>
</g>
<g>
	<path class="st17" d="M259.47,801.74c0.43,0.02,0.85-0.15,1.12-0.49c6.5-8.08,13.48-10.13,13.55-10.15c0.7-0.2,1.08-0.87,0.86-1.5
		c-0.22-0.63-0.97-0.98-1.66-0.79c-0.32,0.09-7.89,2.31-14.89,11.01c-0.43,0.53-0.3,1.28,0.3,1.67
		C258.96,801.66,259.22,801.73,259.47,801.74z"/>
</g>
<g>
	<path class="st17" d="M266.25,804.81c0.43,0.02,0.85-0.15,1.12-0.49c6.5-8.08,13.48-10.13,13.55-10.15c0.7-0.2,1.08-0.87,0.86-1.5
		c-0.22-0.63-0.97-0.98-1.66-0.78c-0.32,0.09-7.89,2.31-14.89,11.01c-0.43,0.53-0.3,1.28,0.3,1.67
		C265.74,804.73,266,804.8,266.25,804.81z"/>
</g>
</svg>
