<?xml version="1.0" encoding="utf-8"?>
<!-- Generator: Adobe Illustrator 23.0.1, SVG Export Plug-In . SVG Version: 6.00 Build 0)  -->
<svg version="1.1" id="Layer_1" xmlns="http://www.w3.org/2000/svg" xmlns:xlink="http://www.w3.org/1999/xlink" x="0px" y="0px"
	 viewBox="0 0 420 878" style="enable-background:new 0 0 420 878;" xml:space="preserve">
<style type="text/css">
	.st0{fill:#3C4169;}
	.st1{fill:#EEA886;}
	.st2{fill:#224156;}
	.st3{fill:#315268;}
	.st4{fill:#32324C;}
	.st5{fill:#F88968;}
	.st6{fill:#FFFFFF;}
	.st7{fill:#FFAF82;}
	.st8{fill:#920E08;}
	.st9{fill:#F85C66;}
	.st10{fill:#EDDAD3;}
</style>
<g>
	<g>
		<path class="st0" d="M284.68,823.42c0,0-7.45,7.36-15.96,16.91c-8.5,9.54-22.24,11.88-24.69,12.97c-2.45,1.09-12.92,5.1-8.42,9.18
			c4.5,4.08,33.98,2.87,44.67-1.73c0,0,8.13-5.59,8.87-5.76c0.74-0.17,2.23,3.94,2.23,3.94l7.62-0.43c0,0,3.31-0.32,4.73-0.79
			c1.42-0.47,2.75-7.01,2.88-7.86c0.13-0.8-1.24-19.67-5.51-26.24C296.84,817.03,284.68,823.42,284.68,823.42z"/>
		<path class="st0" d="M366.58,829.46c0,0-7.45,7.36-15.96,16.91c-8.5,9.54-22.24,11.88-24.69,12.97c-2.45,1.09-12.92,5.1-8.42,9.18
			c4.5,4.08,33.98,2.87,44.67-1.73c0,0,8.13-5.59,8.87-5.76c0.74-0.17,2.23,3.94,2.23,3.94l7.62-0.43c0,0,3.31-0.32,4.73-0.79
			c1.42-0.47,2.75-7.01,2.88-7.86c0.13-0.8-1.24-19.67-5.51-26.24C378.74,823.07,366.58,829.46,366.58,829.46z"/>
		<path class="st1" d="M277.66,804.72c0,0,1.7,22.75,0.89,26.29c-0.81,3.53,13.62,10.08,22.53-2.55c0,0-1.16-28.28-0.52-28.73
			C301.19,799.28,277.66,804.72,277.66,804.72z"/>
		<path class="st1" d="M358.16,807.46c0,0,3.81,22.5,3.32,26.09c-0.48,3.59,14.5,8.77,22.2-4.63c0,0-3.77-28.05-3.18-28.56
			C381.09,799.86,358.16,807.46,358.16,807.46z"/>
		<g>
			<g>
				<g>
					<path class="st2" d="M248.8,640.58l28.29,178.04l27.06-1.95c1.22-70.27,8.05-163.65-14.87-186.97
						c31.32-87.01,14.11-171.51,14.11-171.51c-21.31-7.64-54.35-15.66-54.35-15.66C242.39,503.58,248.8,640.58,248.8,640.58z"/>
				</g>
			</g>
			<g>
				<g>
					<g>
						<path class="st3" d="M294.77,458.95c0,0,13.79,95.79,33.63,177.68c4.24,17.5,16.08,130.78,28.6,178.91l28.97-2.09l-7.21-177.6
							c0,0,7.49-114.24-12.44-189.71L294.77,458.95z"/>
					</g>
				</g>
				<g>
					<path class="st3" d="M362.26,426.32c3.85,13.54,8,36.32,2.04,59.96c0,0-52.34,15.86-91.71-8.47
						c-25.76-15.92-28.41-36.55-28.58-42.96L362.26,426.32z"/>
				</g>
			</g>
		</g>
		<g>
			<path class="st4" d="M276.55,168.92c-14.33-0.56-25.42-12.64-25.07-26.98c0.77-31.61-5.4-56.72-3.11-76.21
				c1.68-14.34,5.86-37.18,28.84-48.78c33.35-16.84,64.34-1.42,78.95,27.85c5.28,10.59,7.86,17.3,12.2,38.39
				c3.13,15.21,2.08,27.56,3.1,37.83c1.98,19.99-11.38,38.27-31.04,42.37C319.91,167.67,295.88,169.67,276.55,168.92z"/>
			<g>
				<g>
					<g>
						<g>
							<path class="st5" d="M267.59,89.22c0,0-10.94-10.81-18.46-0.19c-6.61,9.34-0.42,32.34,17.2,30.42L267.59,89.22z"/>
						</g>
					</g>
					<path class="st6" d="M251.98,119.02c0.18,2.47,2.32,4.32,4.79,4.14c2.47-0.18,4.32-2.32,4.14-4.79
						c-0.18-2.47-2.32-4.32-4.79-4.14C253.65,114.41,251.8,116.56,251.98,119.02z"/>
					<g>
						<g>
							<path class="st7" d="M288.66,176.97c-15.82,7.04-25.73,11.77-31.69,14.93c-3.32,1.76-6.36,2.61-8,5.6
								c-4.28,7.87,4,21.44,11.95,28.76c13.62,12.53,32.01,12.02,42.81,11.72c18.5-0.51,50.91-7,55.07-23.72
								c2.24-9.02-3.8-20.14,2.15-25.17c2.53-2.14,5.6-1.53,5.72-2.55c0.46-3.78-20.91-9.51-40.23-13.99
								c0.03-7.8,0.05-15.6,0.08-23.4l0.06-17.19l-42.52,11.48l3.66,26.78L288.66,176.97z"/>
							<path class="st7" d="M331.41,176.74"/>
						</g>
						<g>
							<path class="st5" d="M288.18,173.44c14.68-1.08,30.52-11.92,38.34-19.13l0.07-22.35l-42.52,11.48L288.18,173.44z"/>
						</g>
					</g>
					<g>
						<path class="st7" d="M305.8,153.75c41.43-12.68,45.1-68.45,45.1-68.45s-0.14-3.71-1.22-9.04c-0.6-2.93-1.48-6.35-2.78-9.92
							c-3.79-10.39-11.14-22.02-25.37-26.3c-0.45-0.14-0.9-0.27-1.35-0.39c-23.56-6.49-56.87-0.25-64.89,30.9
							c-0.47,1.85-0.85,3.86-1.13,6c-0.16,1.21-0.28,2.48-0.38,3.77C251.47,112.05,268.57,165.15,305.8,153.75z"/>
					</g>
					<g>
						<g>
							<g>
								<path class="st4" d="M310.12,96.75c2.99,0.21,5.58-2.05,5.78-5.03c0.08-1.06-0.16-2.06-0.63-2.93
									c4.39-0.84,4.1-3.52,4.1-3.52c-0.61,1.2-5.83,0.9-7.99,0.73l-0.01,0c-0.27-0.03-0.49-0.04-0.64-0.06c-0.01,0-0.02,0-0.03,0
									c-0.09-0.01-0.17-0.01-0.26,0c-2.8,0.02-5.16,2.19-5.35,5.04C304.88,93.95,307.13,96.54,310.12,96.75z"/>
							</g>
						</g>
					</g>
					<g>
						<path class="st7" d="M343.73,86.96c0,0,14.52-9.38,20.35,4.03c5.13,11.79-6.97,35.68-25.92,29.52L343.73,86.96z"/>
					</g>
					<path class="st6" d="M344.51,121.02c0.18,2.47,2.32,4.32,4.79,4.14c2.47-0.18,4.32-2.32,4.14-4.79
						c-0.18-2.47-2.32-4.32-4.79-4.14C346.19,116.41,344.33,118.56,344.51,121.02z"/>
					<g>
						<g>
							<path class="st8" d="M278.78,132.13c0.74,1.37,1.7,2.71,2.96,3.86c2.53,2.32,6.26,3.88,11.73,3.47
								c4.6-0.34,8.02-3.15,10.47-6.4c1.66-2.2,2.88-4.61,3.71-6.57c1.01-2.38,1.46-4.13,1.46-4.13s-22.1,0.9-32.77,0.11
								c0,0,0,0,0,0.01c0,0.11,0.01,1.92,0.53,4.32C277.21,128.42,277.8,130.31,278.78,132.13z"/>
						</g>
						<g>
							<path class="st6" d="M276.87,126.8c10.2,1.23,26.46-0.1,30.78-0.31c1.01-2.38,1.46-4.13,1.46-4.13s-22.1,0.9-32.77,0.11
								c0,0,0,0,0,0.01C276.34,122.6,276.35,124.4,276.87,126.8z"/>
						</g>
					</g>
					<g>
						<path class="st9" d="M281.74,135.99c2.53,2.32,6.26,3.88,11.73,3.47c4.6-0.34,8.02-3.15,10.47-6.4
							c-1.52-0.73-5.71-2.18-11.36,0.16c0,0-2.14-1.09-5.71-0.41C284.8,133.21,282.96,134.04,281.74,135.99z"/>
					</g>
					<g>
						<path class="st5" d="M296.17,145.72c3.99-1.08,6.65-3.16,6.84-3.31c0.53-0.42,0.62-1.2,0.19-1.73
							c-0.42-0.53-1.2-0.62-1.73-0.19c-0.31,0.25-7.53,5.84-15.84,2.16c-0.62-0.28-1.35,0.01-1.63,0.63
							c-0.28,0.62,0.01,1.35,0.63,1.63C288.95,146.8,292.99,146.58,296.17,145.72z"/>
					</g>
					<g>
						<path class="st5" d="M288.56,116.55l6.39-0.46c0.73-0.05,1.27-0.68,1.22-1.41c-0.05-0.73-0.68-1.27-1.41-1.22l-6.39,0.46
							c-0.12,0.01-0.2-0.05-0.25-0.1c-0.04-0.05-0.09-0.14-0.07-0.26l4-18.56c0.15-0.71-0.3-1.41-1.01-1.57
							c-0.71-0.15-1.41,0.3-1.56,1.01l-4,18.56c-0.2,0.91,0.04,1.84,0.65,2.54C286.75,116.26,287.63,116.62,288.56,116.55z"/>
					</g>
					<path class="st4" d="M301.78,75.04L301.78,75.04c-0.17,1.47,0.95,2.78,2.43,2.82c4.95,0.13,15.29,1.05,20.3,6.34
						c0,0-1.67-9.16-19.91-11.37C303.21,72.66,301.95,73.65,301.78,75.04z"/>
					<path class="st4" d="M281.49,76.35L281.49,76.35c0.13,1.48-1.04,2.75-2.52,2.74c-4.95-0.03-15.31,0.58-20.49,5.7
						c0,0,1.96-9.1,20.26-10.74C280.14,73.93,281.37,74.96,281.49,76.35z"/>
					<g>
						<g>
							<g>
								<path class="st4" d="M274.38,98.63c-2.93,0.63-5.81-1.22-6.45-4.15c-0.23-1.03-0.14-2.06,0.21-2.99
									c-4.46-0.2-4.57-2.89-4.57-2.89c0.77,1.1,5.89,0.06,8.01-0.43l0.01,0c0.26-0.07,0.47-0.11,0.63-0.15
									c0.01,0,0.02,0,0.03-0.01c0.08-0.02,0.17-0.03,0.25-0.04c2.77-0.38,5.42,1.43,6.02,4.22C279.16,95.12,277.3,98,274.38,98.63
									z"/>
							</g>
						</g>
					</g>
					<path class="st4" d="M318.03,42.78c0,0,4.78,36.82,23.1,50.5c0,0,0.78-9.91,14.3-9.41c0,0,1.1-2.39,2.27-13.65
						c1.17-11.26-9.22-56.66-59.92-50.03c0,0-16.43-2.12-37.69,18.9c-21.26,21.01-6.31,41.24-6.31,41.24S291.21,72.38,318.03,42.78z
						"/>
				</g>
			</g>
		</g>
		<g>
			<path class="st7" d="M143.73,188.85c3.19,3.47,7.35,7.4,12.6,11.2c3.62,2.62,7.11,4.7,10.27,6.35
				c-0.95,3.4-4.09,13.03-12.16,16.08c-6.31,2.39-12.95-0.26-18.63-3.29c-25.48-13.59-75.01-57.9-82.41-64.54
				c4.63-5.13,7.86-11.85,8.7-18.18c0,0,28.99,18.77,39.82,25.39C112.76,168.48,143.73,188.85,143.73,188.85z"/>
		</g>
		<path class="st10" d="M79.78,181.69c3.24-4.32,6.48-8.64,9.72-12.97s6.48-8.64,9.72-12.97c22.33,14.41,44.66,28.81,66.99,43.22
			c32.34-1.08,50.65-4.44,61.58-7.56c3.32-0.95,13.85-4.13,28.09-4.32c6.85-0.09,12.48,0.53,16.21,1.08
			c3.17,7.54,6.98,20,1.35,29.23c0,0-0.4,0.62-0.9,1.27c-10.2,13.21-49.37,14.66-56.63,14.88c-31.44,0.95-47.38,1.35-58.34-2.16
			c-10.87-3.48-18.92-8.49-34.57-18.37C104.2,201.16,89.65,189.88,79.78,181.69z"/>
		<path class="st10" d="M260.14,352.22c-2.18-18.77-4.36-37.54-6.53-56.31c-5.34-6.6-11.46-16.46-11.95-28.76
			c-0.4-9.92,3.24-11.89,5.6-25.09c4.26-23.93-4.92-33.13,1.72-44.56c3.05-5.25,9.73-11.47,26.13-14.23
			c0.6,3.97,2.07,10.29,6.15,16.84c2.4,3.86,10.41,16.72,23.52,18.05c15.3,1.56,27.87-13.57,32.79-24.59
			c3.06-6.86,3.66-13.26,3.67-17.55c6.26,1,11.37,2.52,15.09,3.85c0,0,10.08,3.6,17.28,8.74c3.11,2.22,5.59,4.66,5.59,4.66
			c0,0,0.84,0.83,1.58,1.64c1.69,1.84,7.02,10.67,5.57,24.77c-0.37,3.56-2.75,26.65-18.93,32.84c-4.23,1.62-8.17,1.61-10.7,1.39
			c-0.21,11.62-0.89,24.06-2.25,37.19c-2.3,22.26-6.12,42.36-10.48,60.01c9.14,24.03,18.28,48.06,27.42,72.08
			c-13.03,10.55-34.43,24.08-62.26,26.71c-15.3,1.45-28.46-0.78-37.19-2.25c-19.47-3.29-34.95-9.19-45.45-14
			c5.14-8.32,10.34-17.74,15.24-28.26C250.83,385.93,256.51,367.73,260.14,352.22z"/>
		<g>
			<path class="st7" d="M350.32,404.43c0,0-7.25,3.18-11.98,7.69c-4.72,4.51-9.48,9.42-12.34,12.25c-3.44,3.41,0.83,5.13,4.82,3.22
				c6.05-2.9,7.8-5.94,7.8-5.94s-14.54,21.54-15.89,28.39c-1.24,6.25,7.38-5.22,15.03-14.32c0,0-10.43,23.24-8.04,26.85
				c3.14,4.74,15.69-23.45,15.69-23.45s-6.17,22.16-3.42,22.53c3.07,0.41,12.15-21.51,12.15-21.51s-2.89,15.6-0.98,15.19
				c3.78-0.81,16.53-32.07,12.19-46.89C365.35,408.45,353.88,403.19,350.32,404.43z"/>
		</g>
		<g>
			<g>
				<g>
					<g>
						<path class="st7" d="M345.64,405.93c5.59,7.87,8.62,8.44,17.37,10.04c21.69-32.86,33.41-63.86,35.15-86.28
							c-1.67-29.55-35.2-12.9-28.92,4.27L345.64,405.93z"/>
					</g>
				</g>
			</g>
		</g>
		<path class="st10" d="M386.62,378.33c-5.6-2.92-11.72-5.85-18.37-8.64c-4.85-2.04-9.54-3.83-14.05-5.4
			c5.76-15.85,11.52-31.69,17.29-47.54c-10.64-40.63-21.29-81.26-31.93-121.89c5.88-5.45,15.48-11.68,25.52-9.69
			c15.86,3.14,23.09,26.56,31.44,53.48c6.05,19.52,1.48,14.56,9.23,44.67c0.7,2.71,3.73,16.92,2.37,33.57
			c-0.55,6.73-2.04,16.5-6.38,27.94C396.71,356,391.67,367.16,386.62,378.33z"/>
	</g>
</g>
<g>
	<path class="st7" d="M53.04,118.33c0,0-6.62-6.12-12.06-11.1c-2.42-2.22-5.35-5.23-10.35-10.43c-4.65-4.83-11.33-11.77-13.8-9.49
		c-3.22,2.97-0.5,4.88,7.42,14.12c2.03,2.37,4.64,5.02,9.57,10.4l8.19,7.71c0,0-7.64,21.03-14.31,21.25c0,0,9.48,8.2,25.18,14.28
		c1.05-0.07,5.4-0.5,8.97-4.15c3.54-3.63,3.88-7.96,3.94-9.01c0.06-1.51,0.06-3.24-0.29-5.1c-0.6-3.2-2.1-7.69-5.73-12.88
		L53.04,118.33z"/>
	<path class="st7" d="M27.5,121.81c0,0-4.84-6.95,3.08-10.62c2.72-1.26,4.8,0.85,11.59,8.43c0,0-3.85,3.17-6.1,6.02
		C36.07,125.64,30.43,123.65,27.5,121.81z"/>
	<path class="st7" d="M26.73,131.45c0,0-3.94-2.09-3.09-6.12c0,0,0.44-2.73,3.76-3.54c0,0,5.31,2.55,6.8,2.89
		c0,0,13.88,3.74,13.2,8.68c-0.32,2.36-1.95,3.63-7.29,2.62L26.73,131.45z"/>
	<path class="st7" d="M27.7,140.79c0,0-6.66-5.06-1.06-9.5l11.83,4.09c0,0,3.55,1.8,2.07,4.41
		C39.09,142.35,36.62,142.82,27.7,140.79z"/>
	<g>
		<g>
			<path class="st5" d="M31.12,141.31c1.13,0.11,2.28,0.17,3.4,0.01c0.56-0.09,1.1-0.24,1.59-0.5c0.49-0.26,0.9-0.64,1.22-1.09
				c0.32-0.46,0.61-0.94,0.61-1.48c0.02-0.53-0.18-1.06-0.46-1.52c-0.59-0.92-1.47-1.68-2.4-2.26l-1.08-0.68l1.24,0.28l2.8,0.63
				c0.93,0.16,1.88,0.25,2.81,0.17c0.91-0.08,1.82-0.38,2.36-1.06c0.55-0.67,0.75-1.61,0.85-2.53c0.1-0.9-0.08-1.8-0.5-2.6
				c-0.41-0.8-1.03-1.5-1.73-2.1c-0.7-0.6-1.48-1.11-2.31-1.54c-0.82-0.44-1.68-0.82-2.57-1.1l-0.64-0.2l0.43-0.49
				c0.49-0.56,1.1-1.05,1.79-1.36c0.66-0.33,1.44-0.44,1.78-0.8c0.36-0.36,0.39-1.1,0.36-1.76c-0.01-0.34-0.04-0.69-0.09-1.02
				c-0.06-0.3-0.2-0.61-0.36-0.9c-0.68-1.17-1.7-2.16-2.72-3.09c-1.04-0.92-2.14-1.79-3.27-2.59l0.05-0.07
				c1.18,0.76,2.31,1.58,3.39,2.47c1.07,0.91,2.13,1.85,2.9,3.08c0.19,0.31,0.35,0.64,0.44,1.03c0.07,0.36,0.13,0.7,0.17,1.06
				c0.04,0.36,0.07,0.72,0.04,1.1c-0.03,0.37-0.11,0.8-0.41,1.15c-0.3,0.35-0.69,0.5-1.02,0.64c-0.33,0.13-0.64,0.25-0.93,0.4
				c-0.57,0.3-1.06,0.72-1.47,1.23l-0.21-0.7c1.9,0.57,3.69,1.5,5.18,2.84c0.74,0.68,1.39,1.47,1.83,2.4c0.44,0.92,0.63,1.99,0.48,3
				c-0.14,0.96-0.35,2.01-1.05,2.83c-0.7,0.83-1.79,1.15-2.77,1.21c-1,0.07-1.98-0.06-2.93-0.24l-2.82-0.67l0.16-0.4
				c0.98,0.65,1.86,1.44,2.48,2.45c0.3,0.51,0.51,1.1,0.48,1.72c-0.02,0.3-0.1,0.61-0.24,0.88c-0.13,0.27-0.3,0.51-0.47,0.74
				c-0.35,0.47-0.81,0.87-1.34,1.13c-0.53,0.27-1.1,0.41-1.67,0.48c-1.15,0.14-2.3,0.04-3.43-0.1L31.12,141.31z"/>
		</g>
	</g>
	<path class="st7" d="M57.02,119.61c-1.94-2.08-4.95-5.49-9.2-4.6c-3.44,0.72-14.64,5.46-12.29,10.27c1.42,2.91,6.61-0.44,13.2-1.63
		c2.03-0.36,4.03,3.51,6.92,5.67c0,0,4.66,3.12,6.03-2.47C61.68,126.85,58.82,121.54,57.02,119.61z"/>
	<g>
		<path class="st5" d="M47.51,114.78c-1.37,0.44-2.69,1.03-3.98,1.65c-1.29,0.64-2.55,1.32-3.74,2.11c-1.2,0.77-2.35,1.64-3.3,2.69
			c-0.47,0.53-0.88,1.12-1.09,1.79c-0.23,0.66-0.19,1.42,0.14,2.06c-0.41-0.6-0.51-1.4-0.32-2.12c0.19-0.72,0.59-1.36,1.05-1.93
			c0.93-1.14,2.11-2.02,3.32-2.83c1.23-0.78,2.5-1.47,3.83-2.05C44.73,115.59,46.09,115.07,47.51,114.78z"/>
	</g>
	<g>
		<path class="st5" d="M35.95,125.85c0.75,0.61,1.75,0.52,2.63,0.35c0.9-0.17,1.79-0.45,2.67-0.75c1.76-0.59,3.54-1.19,5.36-1.65
			c0.46-0.11,0.92-0.21,1.38-0.3l0.69-0.13l0.19-0.02c0.06,0,0.15,0,0.22,0c0.14,0.01,0.27,0.03,0.4,0.07
			c0.52,0.14,0.93,0.43,1.31,0.74c0.37,0.31,0.7,0.65,1.02,1c1.26,1.4,2.36,2.89,3.77,4.12c-0.78-0.51-1.47-1.16-2.15-1.81
			c-0.66-0.66-1.29-1.36-1.95-2c-0.66-0.62-1.34-1.31-2.14-1.51c-0.21-0.04-0.35-0.06-0.58-0.02l-0.68,0.13
			c-0.45,0.09-0.9,0.2-1.35,0.31c-1.8,0.43-3.56,1.01-5.37,1.51c-0.9,0.24-1.81,0.48-2.75,0.6c-0.47,0.05-0.95,0.07-1.42-0.01
			C36.73,126.4,36.27,126.2,35.95,125.85z"/>
	</g>
</g>
</svg>
